# xmcd
# 
# Track frame offsets:
#     150
#     23899
#     47837
#     71496
# 
# Disc length: 1269
# 
# Revision: 1
# Processed by: cddbd v1.5.2PL0 Copyright (c) Steve Scherf et al.
# Submitted via: BonkEnc v1.0.8
# 
DISCID=2f04f304
DTITLE=JUJU - Hello, Again
DYEAR=2010
DGENRE=JPop
TTITLE0=Hello, Again
TTITLE1=Hello,Again(Ballad Ver)
TTITLE2=Hello,Again(instrumental)
TTITLE3=Hello, Again(Ballad Ver instrumental)
EXTD=
EXTT0=
EXTT1=
EXTT2=
EXTT3=
PLAYORDER=
